# xmcd CD database file
#
# Track frame offsets:
#	150
#	47975
#	79522
#	121230
#	171185
#	230577
#	261790
#	318142
#	338355
#
# Disc length: 4692 seconds
#
# Revision: 0
# Processed by: cddbd v1.5.2PL0 Copyright (c) Steve Scherf et al.
# Submitted via: CDex 1.51
#
DISCID=6b125209
DTITLE=Shelly Manne - At The Manne Hole
DYEAR=1961
DGENRE=Jazz
TTITLE0=Love for sale
TTITLE1=How could it happen to a dream
TTITLE2=Softly, as in a morning sunrise
TTITLE3=The champ
TTITLE4=On green dolphin street
TTITLE5=What's new?
TTITLE6=If I were a bell
TTITLE7=Ev'ry time we say goodbye
TTITLE8=A gem from tiffany
EXTD=YEAR: 1961
EXTT0=
EXTT1=
EXTT2=
EXTT3=
EXTT4=
EXTT5=
EXTT6=
EXTT7=
EXTT8=
PLAYORDER=
